<?xml version="1.0" standalone="no"?>
<!DOCTYPE svg PUBLIC "-//W3C//DTD SVG 1.1//EN" "http://www.w3.org/Graphics/SVG/1.1/DTD/svg11.dtd" >
<svg xmlns="http://www.w3.org/2000/svg">
<metadata></metadata>
<defs>
<font id="mobilregular" horiz-adv-x="1138" >
<font-face units-per-em="2048" ascent="1638" descent="-410" />
<missing-glyph horiz-adv-x="569" />
<glyph horiz-adv-x="0" />
<glyph horiz-adv-x="682" />
<glyph unicode=" "  horiz-adv-x="569" />
<glyph unicode="&#x09;" horiz-adv-x="569" />
<glyph unicode="&#xa0;" horiz-adv-x="569" />
<glyph unicode="!" horiz-adv-x="569" d="M127 0v303h315v-303h-315zM127 410v1044h315v-1044h-315z" />
<glyph unicode="&#x22;" horiz-adv-x="833" d="M70 905l131 246h-131v303h286v-303l-168 -246h-118zM475 905l127 246h-127v303h287v-303l-172 -246h-115z" />
<glyph unicode="#" d="M176 1094l39 118h195l43 123h-197l43 119h193l61 184h133l-65 -184h129l61 184h133l-63 -184h192l-45 -119h-188l-39 -123h192l-47 -118h-186l-64 -185h-135l64 185h-123l-66 -185h-133l66 185h-193zM545 1212h125l43 123h-127z" />
<glyph unicode="$" d="M156 541h245q4 -63 30.5 -95t88.5 -49v355q-140 41 -235 118q-97 79 -97 240q0 283 332 344v90h156v-90q306 -44 328 -324h-230q-6 56 -26 80.5t-72 34.5v-305q144 -46 252 -129q108 -79 108 -256q0 -158 -100.5 -260t-259.5 -121v-174h-156v172q-161 19 -254 113 t-110 256zM418 1112q1 -43 29.5 -75t72.5 -44v248q-44 -13 -70.5 -47t-31.5 -82zM676 397q102 19 102 142q0 60 -23.5 94t-78.5 59v-295z" />
<glyph unicode="%" horiz-adv-x="1441" d="M53 0l1135 1454h201l-1135 -1454h-201zM135 1133q0 129 90 225q93 96 226 96q134 0 223 -92q92 -92 92 -229q0 -138 -92 -230q-89 -92 -223 -92q-132 0 -224 92t-92 230zM319 1133q0 -60 37.5 -99t94.5 -39q59 0 95 40t36 98q0 55 -37.5 96t-93.5 41t-94 -41t-38 -96z M659 315q0 133 91 224q92 92 227 92q133 0 225 -92t92 -224q0 -131 -92 -223q-89 -92 -225 -92q-135 0 -227 92q-91 94 -91 223zM844 315q0 -52 38.5 -91.5t94.5 -39.5t94.5 39.5t38.5 91.5t-38.5 91.5t-94.5 39.5t-94.5 -39.5t-38.5 -91.5z" />
<glyph unicode="&#x26;" horiz-adv-x="1402" d="M74 389q0 143 70.5 242.5t203.5 179.5q-119 154 -119 305q0 170 111 264q114 99 274 99q150 0 263 -90q110 -88 110 -248q0 -135 -76 -217q-75 -84 -170 -158l213 -258q33 44 50 80q29 61 38 162h295q-25 -182 -110 -320q-48 -73 -97 -127l248 -303h-342l-100 123 q-9 -6 -26 -19t-21 -16q-163 -111 -350 -111q-186 0 -326 107q-139 109 -139 305zM377 418q0 -80 51.5 -128t132.5 -48q95 0 205 80l-252 294q-66 -45 -101.5 -89t-35.5 -109zM496 1126q0 -64 67 -147q7 -7 19 -23q37 23 57 41q98 78 98 144q0 49 -35.5 76.5t-87.5 27.5 q-54 0 -86 -32.5t-32 -86.5z" />
<glyph unicode="'" horiz-adv-x="417" d="M66 1151v303h286v-303l-168 -246h-114l127 246h-131z" />
<glyph unicode="(" horiz-adv-x="645" d="M131 752q0 462 326 977l149 -107q-6 -14 -19.5 -36t-15.5 -25q-219 -404 -219 -824q0 -352 150 -694q55 -120 104 -211l-145 -90q-142 238 -234 483q-96 259 -96 527z" />
<glyph unicode=")" horiz-adv-x="645" d="M41 -170q59 115 96 195q79 178 118.5 351.5t39.5 368.5q0 417 -213 803l-41 74l147 107q156 -246 242 -486t86 -498q0 -261 -96 -520q-87 -231 -236 -481z" />
<glyph unicode="*" horiz-adv-x="645" d="M94 1225l164 82l-164 86l41 69l152 -90v168h78v-168l143 90l45 -69l-156 -86l156 -82l-37 -66l-151 90v-180h-78v180l-156 -90z" />
<glyph unicode="+" d="M37 385v295h385v385h295v-385h385v-295h-385v-385h-295v385h-385z" />
<glyph unicode="," horiz-adv-x="569" d="M139 0v303h291v-295l-172 -254h-115l127 246h-131z" />
<glyph unicode="-" horiz-adv-x="681" d="M74 512v287h532v-287h-532z" />
<glyph unicode="." horiz-adv-x="569" d="M139 0v303h291v-303h-291z" />
<glyph unicode="/" horiz-adv-x="985" d="M-12 0l893 1454h172l-893 -1454h-172z" />
<glyph unicode="0" d="M29 709q0 87 12 182q30 218 152 403q120 185 376 185q262 0 383 -189q122 -190 148 -409q10 -69 10 -162q0 -59 -6 -121q-21 -238 -139 -428q-120 -193 -394 -193q-289 0 -409 205q-119 204 -131 453q-2 25 -2 74zM332 715q0 -96 14 -191q15 -99 66 -188q50 -86 155 -86 q111 0 160 88q53 89 68 199q12 89 12 204q0 95 -14 187q-15 103 -68 190q-50 86 -158 86q-109 0 -159 -90q-49 -88 -64 -194q-12 -91 -12 -205z" />
<glyph unicode="1" horiz-adv-x="909" d="M178 1208v246h486v-1454h-304v1208h-182z" />
<glyph unicode="2" d="M74 948q9 226 131 379q125 152 364 152q213 0 344 -125t131 -336q0 -70 -14 -127q-36 -133 -196 -295l-336 -342h575v-254h-997v195l600 628q47 50 57 101q8 27 8 82q0 94 -48.5 150t-139.5 56q-119 0 -166 -77q-45 -74 -39 -187h-274z" />
<glyph unicode="3" d="M66 424h286q11 -90 59.5 -142.5t135.5 -52.5q86 0 138 56.5t52 144.5q0 128 -73 162q-75 35 -183 35h-104v254h67h27q95 0 172 24q78 28 78 148q0 78 -47 125t-125 47q-146 0 -172 -160h-287q23 197 146.5 305.5t322.5 108.5q184 0 315 -107q134 -110 134 -297 q0 -109 -45.5 -179t-143.5 -126q234 -96 234 -344q0 -209 -148 -330q-146 -119 -350 -119q-206 0 -346 119q-140 122 -143 328z" />
<glyph unicode="4" d="M39 365v219l567 870h303v-836h191v-253h-191v-365h-303v365h-567zM340 618h266v418h-4z" />
<glyph unicode="5" d="M43 410h283q19 -86 74 -133.5t141 -47.5q103 0 166 71.5t63 178.5q0 108 -63.5 179t-169.5 71q-96 0 -160 -61l-27 -27h-239l39 813h804v-254h-546l-15 -276q129 59 215 59q202 0 334 -141q131 -140 131 -348q0 -225 -149 -371q-152 -146 -373 -146q-206 0 -346 113 q-141 117 -162 320z" />
<glyph unicode="6" d="M37 498q0 177 127 374l379 582h368l-376 -536l4 -5q69 29 137 29q192 0 309 -141q117 -138 117 -324q0 -222 -156 -360q-158 -140 -371 -140q-227 0 -385 146q-153 144 -153 375zM340 463q0 -93 68 -164q67 -70 161 -70q99 0 164.5 67t65.5 167t-65.5 166.5t-164.5 66.5 t-164 -66.5t-65 -166.5z" />
<glyph unicode="7" d="M76 1163v291h997v-217l-528 -1237h-334l537 1163h-672z" />
<glyph unicode="8" d="M70 420q0 128 59.5 206.5t181.5 137.5q-200 86 -200 311q0 193 139 299q141 105 323 105q187 0 322 -105q137 -104 137 -299q0 -105 -47.5 -179t-142.5 -132q113 -53 170 -134.5t57 -205.5q0 -209 -151 -330q-150 -117 -345 -117q-203 0 -354 115q-149 113 -149 328z M373 422q0 -70 56.5 -125t139.5 -55q77 0 131 57t54 137t-54 130t-133 48q-79 0 -136.5 -51.5t-57.5 -128.5v-12zM401 1055q0 -70 46 -122t124 -52q71 0 120.5 52t49.5 122q0 73 -48 121.5t-122 48.5q-69 0 -119.5 -50.5t-50.5 -119.5z" />
<glyph unicode="9" d="M37 977q0 222 156 360q157 142 370 142q228 0 383 -146q156 -144 156 -377q0 -177 -127 -374l-379 -582h-369l377 537l-4 4q-69 -29 -137 -29q-191 0 -309 139q-117 141 -117 326zM340 991q0 -100 65 -166.5t164 -66.5t164.5 66.5t65.5 166.5q0 93 -68 164 q-67 70 -162 70q-99 0 -164 -67t-65 -167z" />
<glyph unicode=":" horiz-adv-x="569" d="M139 0v303h291v-303h-291zM139 578v303h291v-303h-291z" />
<glyph unicode=";" horiz-adv-x="569" d="M139 0v303h291v-295l-172 -254h-111l123 246h-131zM139 573v304h291v-304h-291z" />
<glyph unicode="&#x3c;" d="M37 395v275l1065 420v-275l-791 -280v-5l791 -280v-275z" />
<glyph unicode="=" d="M37 254v213h1065v-213h-1065zM37 598v213h1065v-213h-1065z" />
<glyph unicode="&#x3e;" d="M37 -25v275l790 280v5l-790 280v275l1065 -420v-275z" />
<glyph unicode="?" horiz-adv-x="1060" d="M16 1040q36 206 164 322.5t334 116.5q207 0 350 -125q148 -126 148 -338q0 -171 -96 -284t-261 -136v-186h-290v409h75q108 0 187 39q82 40 82 164q0 86 -57 138t-144 52q-82 0 -126.5 -44t-62.5 -128h-303zM365 0v303h290v-303h-290z" />
<glyph unicode="@" horiz-adv-x="1630" d="M70 711q0 339 239 553q244 215 568 215q266 0 477 -158q211 -156 211 -447q0 -53 -17 -133q-34 -150 -141 -274q-108 -123 -266 -123q-78 0 -131 46.5t-52 123.5l-4 4q-31 -75 -103 -124.5t-151 -49.5h-10q-137 0 -207 94q-69 92 -69 219q0 55 12 107q29 141 135 262 q109 121 260 121q5 0 17.5 -1t17.5 -1q64 -8 112.5 -44.5t59.5 -96.5h4l27 102h211l-111 -375l-8 -29l-8 -24q-21 -62 -21 -111q0 -29 21.5 -50t52.5 -21q4 0 11.5 1t11.5 1q78 15 143 127q68 115 68 260q0 231 -168 350q-171 121 -381 121q-283 0 -480 -182 q-196 -181 -196 -472q0 -275 192 -440q194 -164 461 -164q282 0 539 197l71 -94q-298 -224 -620 -224q-316 0 -549 201q-229 201 -229 533zM655 635q0 -57 25 -94t78 -37q52 0 86.5 38t62.5 103q6 18 17 48t14 40q4 21 12 39q16 62 17 74q4 32 4 47q0 102 -94 102 q-61 0 -111.5 -60t-79.5 -147q-31 -98 -31 -153z" />
<glyph unicode="A" horiz-adv-x="1251" d="M-74 0l539 1454h330l528 -1454h-348l-103 287h-507l-103 -287h-336zM463 561h315l-151 475h-4z" />
<glyph unicode="B" horiz-adv-x="1214" d="M115 0v1454h581q176 0 287 -108t111 -283q0 -97 -38.5 -167t-119.5 -134q118 -61 174.5 -138.5t56.5 -201.5q0 -179 -116 -301q-115 -121 -330 -121h-606zM430 266h238q184 0 184 178q0 75 -44 124.5t-120 49.5h-258v-352zM430 872h188q75 0 117.5 42t42.5 120 q0 74 -39.5 114t-117.5 40h-191v-316z" />
<glyph unicode="C" horiz-adv-x="1478" d="M57 727q0 306 201 528q202 224 516 224q245 0 422 -142q171 -135 225 -383h-331q-48 106 -124.5 157.5t-191.5 51.5q-186 0 -295 -127q-106 -124 -106 -309t106 -309q109 -127 295 -127q115 0 191.5 51.5t124.5 157.5h331q-53 -245 -225 -383q-178 -140 -422 -140 q-312 0 -516 222q-201 222 -201 528z" />
<glyph unicode="D" horiz-adv-x="1402" d="M123 0v1454h530q283 0 488 -190q205 -187 205 -537q0 -349 -205 -539q-206 -188 -488 -188h-530zM438 274h121q240 0 355.5 104t115.5 349t-115.5 349t-355.5 104h-121v-906z" />
<glyph unicode="E" horiz-adv-x="1062" d="M115 0v1454h860v-274h-545v-295h516v-267h-516v-344h545v-274h-860z" />
<glyph unicode="F" horiz-adv-x="1024" d="M115 0v1454h858v-274h-543v-303h500v-267h-500v-610h-315z" />
<glyph unicode="G" horiz-adv-x="1554" d="M57 727q0 306 201 528q202 224 516 224q245 0 434 -136q185 -133 238 -374h-352q-53 194 -316 194q-187 0 -297 -125q-108 -126 -108 -311q0 -184 116 -309q118 -127 285 -127q137 0 242 51q109 53 139 195h-352v266h643v-803h-266v143q-78 -77 -182.5 -121.5 t-223.5 -44.5q-312 0 -516 222q-201 222 -201 528z" />
<glyph unicode="H" horiz-adv-x="1402" d="M115 0v1454h315v-557h543v557h315v-1454h-315v623h-543v-623h-315z" />
<glyph unicode="I" horiz-adv-x="569" d="M127 0v1454h315v-1454h-315z" />
<glyph unicode="J" horiz-adv-x="1024" d="M16 426h316q0 -97 34.5 -136.5t96.5 -39.5q79 0 109 45t30 164v995h316v-969q0 -253 -105 -380.5t-332 -127.5q-218 0 -336 116t-129 333z" />
<glyph unicode="K" horiz-adv-x="1175" d="M115 0v1454h315v-557h6l424 557h375l-469 -586l508 -868h-369l-346 625l-129 -152v-473h-315z" />
<glyph unicode="L" horiz-adv-x="948" d="M115 0v1454h315v-1163h500v-291h-815z" />
<glyph unicode="M" horiz-adv-x="1705" d="M119 0v1454h471l266 -913h4l273 913h456v-1454h-303v1049h-4l-293 -1049h-276l-287 1049h-4v-1049h-303z" />
<glyph unicode="N" horiz-adv-x="1478" d="M115 0v1454h295l643 -887h8v887h303v-1454h-266l-676 911h-4v-911h-303z" />
<glyph unicode="O" horiz-adv-x="1593" d="M57 727q0 300 215 526t525 226q312 0 524 -226q215 -226 215 -526t-215 -526q-211 -224 -524 -224q-311 0 -525 224q-215 226 -215 526zM373 727q0 -184 119 -309q121 -127 305 -127q182 0 303 127t121 309t-121 309t-303 127q-184 0 -305 -127q-119 -125 -119 -309z" />
<glyph unicode="P" d="M127 0v1454h487q195 0 349 -106q155 -107 155 -344q0 -226 -122.5 -338.5t-381.5 -112.5h-172v-553h-315zM442 819h115q139 0 192.5 42t53.5 143t-53 142.5t-193 41.5h-115v-369z" />
<glyph unicode="Q" horiz-adv-x="1593" d="M57 727q0 300 215 526t525 226q312 0 524 -226q215 -226 215 -526q0 -152 -58.5 -289t-164.5 -241l207 -267h-336l-88 111q-137 -64 -299 -64q-311 0 -525 224q-215 226 -215 526zM373 727q0 -184 119 -309q121 -127 305 -127q42 0 94 10l-182 231h335l74 -92 q103 119 103 287q0 182 -121 309t-303 127q-184 0 -305 -127q-119 -125 -119 -309z" />
<glyph unicode="R" d="M111 0v1454h512q214 0 338 -110t124 -324q0 -131 -55.5 -220t-171.5 -157l305 -643h-340l-260 565h-137v-565h-315zM426 831h74q145 0 207.5 40.5t62.5 138.5t-62.5 138t-207.5 40h-74v-357z" />
<glyph unicode="S" horiz-adv-x="1214" d="M37 442h323q3 -131 74 -166q69 -34 178 -34q98 0 163 45.5t65 134.5q0 87 -80 125q-86 39 -189 61q-13 3 -50 13t-56 14q-146 39 -258 115q-117 80 -117 284q0 194 135 320q137 125 373 125q210 0 347.5 -101.5t168.5 -304.5h-315q-12 70 -62 104.5t-127 34.5 q-101 0 -152.5 -41t-51.5 -110q0 -33 16.5 -58t52 -43t71 -29.5t91.5 -25.5q53 -11 143 -37q141 -40 258 -129t117 -299q0 -236 -166 -350q-165 -113 -385 -113q-125 0 -222 25.5t-171.5 80.5t-118.5 145t-55 214z" />
<glyph unicode="T" horiz-adv-x="985" d="M8 1163v291h969v-291h-330v-1163h-315v1163h-324z" />
<glyph unicode="U" horiz-adv-x="1366" d="M111 602v852h315v-909q0 -144 57 -205t201 -61t201 61t57 205v909h315v-852q0 -297 -124 -461q-126 -164 -449 -164q-322 0 -448 164q-125 165 -125 461z" />
<glyph unicode="V" horiz-adv-x="1175" d="M-82 1454h348l334 -995h4l322 995h331l-522 -1454h-284z" />
<glyph unicode="W" horiz-adv-x="1820" d="M-61 1454h335l252 -950h4l254 950h279l250 -950h4l248 950h315l-422 -1454h-303l-237 907h-5l-247 -907h-310z" />
<glyph unicode="X" horiz-adv-x="1251" d="M-57 0l493 768l-456 686h374l267 -446l268 446h352l-432 -674l498 -780h-367l-319 532l-318 -532h-360z" />
<glyph unicode="Y" horiz-adv-x="1024" d="M-106 1454h356l260 -498l270 498h350l-471 -797v-657h-315v657z" />
<glyph unicode="Z" horiz-adv-x="1136" d="M4 0v238l674 925h-633v291h1065v-221l-676 -942h690v-291h-1120z" />
<glyph unicode="[" horiz-adv-x="645" d="M115 -266v1986h450v-245h-205v-1495h205v-246h-450z" />
<glyph unicode="\" horiz-adv-x="569" d="M-86 1479h225l512 -1504h-225z" />
<glyph unicode="]" horiz-adv-x="645" d="M80 -20h205v1495h-205v245h450v-1986h-450v246z" />
<glyph unicode="^" d="M90 573l367 881h225l367 -881h-250l-230 566l-229 -566h-250z" />
<glyph unicode="_" horiz-adv-x="1024" d="M0 -154h1024v-102h-1024v102z" />
<glyph unicode="`" horiz-adv-x="530" d="M-111 1503h340l205 -315h-239z" />
<glyph unicode="a" horiz-adv-x="1290" d="M49 532q0 224 154 392q153 166 383 166q166 0 291 -107v82h303v-1065h-303v96q-15 -21 -54 -49q-94 -70 -237 -70q-230 0 -383 164q-154 168 -154 391zM352 532q0 -109 76 -188q78 -78 186 -78q107 0 185 78q78 81 78 188q0 109 -78 187q-77 80 -185 80q-109 0 -186 -80 q-76 -76 -76 -187z" />
<glyph unicode="b" horiz-adv-x="1290" d="M111 0v1454h303v-450q138 86 291 86q229 0 382 -166q154 -168 154 -392q0 -223 -154 -391q-153 -164 -382 -164q-144 0 -238 70q-37 27 -53 49v-96h-303zM414 532q0 -110 75 -188q78 -78 187 -78q106 0 184 78q78 81 78 188q0 109 -78 187q-77 80 -184 80 q-110 0 -187 -80q-75 -75 -75 -187z" />
<glyph unicode="c" horiz-adv-x="1175" d="M53 532q0 239 166 398q171 160 399 160q182 0 330 -111q147 -111 174 -299h-303q-52 143 -205 143q-125 0 -192 -88q-66 -87 -66 -203q0 -111 66 -202q67 -88 192 -88q151 0 205 143h303q-34 -196 -174 -303q-138 -105 -330 -105q-231 0 -399 158q-166 156 -166 397z" />
<glyph unicode="d" horiz-adv-x="1290" d="M49 532q0 224 154 392q153 166 383 166q153 0 291 -86v450h303v-1454h-303v96q-15 -21 -54 -49q-94 -70 -237 -70q-230 0 -383 164q-154 168 -154 391zM352 532q0 -109 76 -188q78 -78 186 -78q107 0 185 78q78 81 78 188q0 109 -78 187q-77 80 -185 80q-109 0 -186 -80 q-76 -76 -76 -187z" />
<glyph unicode="e" horiz-adv-x="1175" d="M49 524q0 229 146 398q146 168 387 168q283 0 415 -179q122 -166 122 -406q0 -17 -1 -34h-762q2 -103 62 -172.5t170 -69.5q96 0 150 39t67 99h305q-30 -201 -180 -295q-151 -95 -338 -95q-253 0 -399 158q-144 156 -144 389zM365 684h446q-19 87 -75.5 133.5 t-147.5 46.5t-147.5 -46.5t-75.5 -133.5z" />
<glyph unicode="f" horiz-adv-x="645" d="M-8 811v254h155q0 212 74 301q73 88 297 88h133v-266h-100q-58 0 -79 -25t-21 -98h200v-254h-200v-811h-304v811h-155z" />
<glyph unicode="g" horiz-adv-x="1251" d="M41 567q0 221 147 371q149 152 365 152q184 0 295 -95v70h291v-899q0 -278 -117 -416q-116 -137 -416 -137h-14q-180 0 -350 92q-162 88 -189 295h303q30 -77 92 -109t154 -32q149 0 191 63q43 61 43 225q-96 -102 -283 -102q-216 0 -365 152q-147 150 -147 370zM332 567 q0 -109 76 -182q77 -74 176 -74t176 74q76 73 76 182q0 110 -76 183t-176 73t-176 -73t-76 -183z" />
<glyph unicode="h" horiz-adv-x="1214" d="M111 0v1454h303v-516q41 41 69 63q59 46 117 67.5t139 21.5q170 0 270.5 -103t100.5 -274v-713h-303v651q0 148 -170 148q-95 0 -159 -46.5t-64 -140.5v-612h-303z" />
<glyph unicode="i" horiz-adv-x="530" d="M115 0v1065h303v-1065h-303zM115 1163v291h303v-291h-303z" />
<glyph unicode="j" horiz-adv-x="530" d="M-33 -106h29h49q56 0 64 43q10 52 10 96v1032h303v-1126q0 -147 -65.5 -226.5t-219.5 -99.5l-170 -2v283zM119 1163v291h303v-291h-303z" />
<glyph unicode="k" horiz-adv-x="1099" d="M111 0v1454h303v-811h4l334 422h389l-371 -410l404 -655h-365l-250 424l-145 -162v-262h-303z" />
<glyph unicode="l" horiz-adv-x="530" d="M115 0v1454h303v-1454h-303z" />
<glyph unicode="m" horiz-adv-x="1820" d="M115 0v1065h303v-133l61 61q52 52 114.5 74.5t149.5 22.5q103 0 170.5 -37t118.5 -121l41 45q55 59 119 86t156 27q173 0 268.5 -93t95.5 -264v-733h-303v668q0 70 -35 100.5t-106 30.5q-82 0 -142.5 -53t-60.5 -136v-610h-303v672q0 65 -32 96t-118 31q-95 0 -144.5 -53 t-49.5 -136v-610h-303z" />
<glyph unicode="n" horiz-adv-x="1214" d="M111 0v1065h303v-127q41 41 69 63q59 46 117 67.5t139 21.5q170 0 270.5 -103t100.5 -274v-713h-303v651q0 148 -170 148q-95 0 -159 -46.5t-64 -140.5v-612h-303z" />
<glyph unicode="o" horiz-adv-x="1214" d="M49 532q0 230 164 394t393 164t393 -164t164 -394q0 -229 -164 -393q-162 -162 -393 -162t-393 162q-164 164 -164 393zM352 532q0 -106 74 -180q73 -73 180 -73q105 0 178 73q76 76 76 180q0 103 -76 179q-75 75 -178 75q-105 0 -180 -75q-74 -74 -74 -179z" />
<glyph unicode="p" horiz-adv-x="1290" d="M111 -369v1434h303v-96q16 22 53 49q97 72 238 72q229 0 382 -166q154 -168 154 -392q0 -223 -154 -391q-153 -164 -382 -164q-157 0 -291 84v-430h-303zM414 532q0 -110 75 -188q78 -78 187 -78q106 0 184 78q78 81 78 188q0 109 -78 187q-77 80 -184 80 q-110 0 -187 -80q-75 -75 -75 -187z" />
<glyph unicode="q" horiz-adv-x="1290" d="M49 532q0 224 154 392q153 166 383 166q140 0 237 -72q39 -28 54 -49v96h303v-1434h-303v430q-134 -84 -291 -84q-230 0 -383 164q-154 168 -154 391zM352 532q0 -109 76 -188q78 -78 186 -78q107 0 185 78q78 81 78 188q0 109 -78 187q-77 80 -185 80q-109 0 -186 -80 q-76 -76 -76 -187z" />
<glyph unicode="r" horiz-adv-x="757" d="M115 0v1065h303v-150h4q48 96 118 135.5t181 39.5h37v-291h-21q-209 0 -266 -72q-53 -71 -53 -215v-512h-303z" />
<glyph unicode="s" horiz-adv-x="948" d="M37 344h291q5 -68 41.5 -105.5t97.5 -37.5q12 0 20 2q44 6 77.5 36t33.5 72q0 39 -38 64t-111 49q-18 8 -57 20t-54 17q-99 34 -180 98q-80 65 -80 203q0 176 123 252q122 76 278 76q173 0 271.5 -69.5t123.5 -234.5h-278q-8 53 -32.5 78t-76.5 25h-10q-39 0 -67.5 -23.5 t-28.5 -62.5q0 -45 37.5 -69.5t118.5 -53.5q16 -5 104 -35q98 -37 178 -102q82 -67 82 -213q0 -181 -133 -267t-293 -86q-191 0 -304.5 90.5t-133.5 276.5z" />
<glyph unicode="t" horiz-adv-x="645" d="M0 799v266h160v324h303v-324h180v-266h-180v-799h-303v799h-160z" />
<glyph unicode="u" horiz-adv-x="1214" d="M106 446v619h304v-608q0 -100 46 -145.5t148 -45.5q105 0 154 44.5t49 146.5v608h303v-619q0 -226 -143 -348q-139 -121 -359 -121t-360 119q-142 121 -142 350z" />
<glyph unicode="v" horiz-adv-x="1099" d="M-53 1065h336l264 -645l272 645h334l-489 -1065h-238z" />
<glyph unicode="w" horiz-adv-x="1705" d="M-53 1065h315l254 -631l221 631h238l237 -631l242 631h303l-434 -1065h-238l-233 623l-225 -623h-238z" />
<glyph unicode="x" d="M-49 0l448 545l-409 520h377l215 -303l233 303h377l-428 -520l428 -545h-377l-233 330l-254 -330h-377z" />
<glyph unicode="y" horiz-adv-x="1099" d="M-41 1065h340l250 -612l274 612h328l-684 -1434h-315l229 469z" />
<glyph unicode="z" horiz-adv-x="985" d="M27 0v174l491 637h-473v254h891v-170l-483 -629h503v-266h-929z" />
<glyph unicode="{" horiz-adv-x="645" d="M0 664v147q138 15 178 96q39 79 39 207q0 300 62 451q61 149 409 164v-148q-174 -21 -201 -125q-24 -93 -24 -242v-49q0 -153 -47 -286q-47 -131 -236 -140v-6q190 -21 236 -141q47 -121 47 -283v-49q0 -150 24 -246q27 -105 201 -123v-149q-267 15 -371 119 q-100 100 -100 368v60v14q0 128 -27 236q-28 110 -190 125z" />
<glyph unicode="|" horiz-adv-x="454" d="M94 0v1454h266v-1454h-266z" />
<glyph unicode="}" horiz-adv-x="645" d="M-43 -111q172 21 199 125q26 104 26 246v49q0 162 47 283q46 120 236 141v6q-191 9 -238 140q-45 128 -45 286v49q0 141 -26 242q-27 104 -197 125l-2 148q349 -15 410 -164t61 -451q0 -128 39 -207q40 -81 178 -96v-147q-165 -15 -192 -125q-25 -100 -25 -236v-14v-60 q0 -266 -102 -368t-367 -117z" />
<glyph unicode="~" horiz-adv-x="1136" d="M0 307q17 102 33 152q36 117 100 203q67 94 193 94q34 0 96 -15q75 -19 164 -61q5 -2 27 -12.5t28.5 -13.5t25.5 -11.5t27 -11.5l24 -9t25 -8.5t21.5 -6t22.5 -4.5t20 -1q56 0 89 36.5t56 98.5q3 7 7.5 20.5t7.5 20.5h170q-16 -96 -33 -149q-34 -111 -105 -207 q-70 -94 -194 -94q-5 0 -17 1t-20 1q-80 9 -219 76q-150 75 -219 75q-105 0 -150 -141q-5 -8 -10 -33h-170z" />
<glyph unicode="&#xa1;" horiz-adv-x="569" d="M127 0v1044h315v-1044h-315zM127 1151v303h315v-303h-315z" />
<glyph unicode="&#xa2;" d="M111 782q0 188 94 316t274 164v192h160v-192q164 -24 250 -108.5t119 -244.5h-267q-40 119 -163 119q-102 0 -160 -70.5t-58 -173.5t56.5 -169t156.5 -66q64 0 103 28t65 87h267q-23 -156 -117.5 -245.5t-251.5 -99.5v-213h-160v211q-183 35 -275.5 156t-92.5 309z" />
<glyph unicode="&#xa3;" d="M154 0v233q15 11 22 13q47 31 68.5 66t21.5 94v253h-108v201h110v215q0 188 110 296t300 108q191 0 292 -109.5t103 -300.5h-270q0 67 -27 113q-27 47 -102 47q-66 0 -99.5 -43.5t-33.5 -110.5v-215h252v-201h-256v-280q0 -49 -21 -79t-67 -54v-4h614v-242h-909z" />
<glyph unicode="&#xa4;" d="M37 367l145 143q-67 111 -67 223q0 113 67 230l-145 139l164 164l143 -144q109 66 225 66q93 0 156 -31q10 -4 20.5 -9.5t25 -14.5t22.5 -13l143 146l164 -164l-146 -146q70 -107 70 -221t-70 -225l146 -143l-164 -164l-143 143q-111 -67 -226 -67q-80 0 -139 26 q-27 10 -84 43l-143 -145zM365 733q0 -85 59.5 -145t144.5 -60t145 60t60 145t-60 145t-145 60t-144.5 -60t-59.5 -145z" />
<glyph unicode="&#xa5;" d="M-51 1454h360l266 -502l267 502h346l-336 -573h213v-160h-299l-41 -72v-43h340v-160h-340v-446h-315v446h-340v160h340v43l-37 72h-303v160h211z" />
<glyph unicode="&#xa6;" horiz-adv-x="454" d="M94 0v573h266v-573h-266zM94 881v573h266v-573h-266z" />
<glyph unicode="&#xa7;" d="M20 627q0 104 59.5 184.5t158.5 112.5q-86 93 -86 204q0 160 120 248q125 92 267 101q14 2 43 2q178 0 303 -101q128 -101 131 -288h-266q-5 76 -48 119.5t-120 43.5q-64 0 -110 -31t-46 -92q0 -51 48.5 -93t141.5 -87q20 -10 73 -35.5t83 -40.5q132 -63 238 -147 q108 -85 108 -225q0 -98 -59.5 -180.5t-153.5 -118.5q107 -94 107 -232q0 -180 -138 -268q-140 -90 -301 -90q-198 0 -327 100q-131 98 -131 299h266q11 -89 56 -131.5t136 -42.5q68 0 116 33t48 98q0 60 -55.5 105t-165.5 98q-125 58 -137 64q-139 66 -248 151 q-111 89 -111 240zM274 655q0 -72 95 -127q6 -5 19.5 -12.5t14.5 -7.5l175 -92q164 -88 176 -88q6 0 18 4q42 14 76 76q16 29 16 53q0 32 -17.5 60t-45.5 46q-53 34 -246 135q-4 3 -14.5 7.5t-14.5 7.5q-32 18 -55 28q-22 13 -31 15q-3 1 -7 4t-7 4q-16 9 -45 20 q-46 -14 -76.5 -49.5t-30.5 -83.5z" />
<glyph unicode="&#xa8;" horiz-adv-x="530" d="M-111 1184v315h328v-315h-328zM315 1184v315h328v-315h-328z" />
<glyph unicode="&#xa9;" horiz-adv-x="1630" d="M66 727q0 306 219 528q220 224 530 224q308 0 528 -224q222 -225 222 -528q0 -306 -222 -528q-219 -222 -528 -222q-308 0 -530 222q-219 222 -219 528zM197 727q0 -258 180 -438q183 -183 438 -183q253 0 436 183t183 438t-183 438t-436 183q-255 0 -438 -183 q-180 -180 -180 -438zM414 727q0 183 106 313q107 131 295 131q143 0 254 -88q111 -89 123 -235h-184q-12 73 -58 112t-121 39q-96 0 -139 -69q-40 -66 -49 -150q0 -8 -1 -23.5t-1 -23.5q0 -25 2 -39q3 -91 43 -166q40 -73 145 -73q75 0 121 39t58 112h184 q-12 -148 -123 -237q-109 -86 -254 -86q-188 0 -295 131q-106 130 -106 313z" />
<glyph unicode="&#xaa;" horiz-adv-x="872" d="M33 1145q0 135 98 233q101 101 250 101q105 0 188 -62v45h197v-635h-197v56q-24 -24 -32 -29q-58 -43 -156 -43q-152 0 -250 98t-98 236zM229 1145q0 -66 50.5 -114t119.5 -48q71 0 120.5 47.5t49.5 114.5t-49.5 114.5t-120.5 47.5q-69 0 -119.5 -48t-50.5 -114z" />
<glyph unicode="&#xab;" horiz-adv-x="1136" d="M72 528v254l463 283v-246l-267 -164l267 -163v-246zM602 528v254l463 283v-246l-266 -164l266 -163v-246z" />
<glyph unicode="&#xac;" d="M29 639v266h1081v-729h-262v463h-819z" />
<glyph unicode="&#xad;" horiz-adv-x="1024" />
<glyph unicode="&#xae;" horiz-adv-x="1630" d="M70 727q0 308 219 530t528 222q310 0 529 -222t219 -530t-219 -530q-220 -220 -529 -220q-308 0 -528 220q-219 222 -219 530zM201 727q0 -255 180 -438q183 -183 436 -183t436 183q181 184 181 438q0 257 -181 438q-183 183 -436 183t-436 -183q-180 -180 -180 -438z M500 315v828h295q42 0 67 -2q107 -6 207 -58q90 -44 90 -186q0 -179 -196 -201v-4q68 -8 119.5 -50.5t64.5 -106.5q6 -31 6 -103v-20q0 -59 14 -97h-209q-12 32 -12 95l-2 6v18v25l-6 49q-12 98 -152 98h-34h-43v-291h-209zM709 754h57h12q67 0 117 20q55 21 55 105 q0 32 -11.5 54t-33 34t-43.5 17.5t-51 8.5q-18 2 -51 2h-51v-241z" />
<glyph unicode="&#xaf;" horiz-adv-x="569" />
<glyph unicode="&#xb0;" horiz-adv-x="833" d="M86 1143q0 134 96 235q98 101 236 101q135 0 233 -101q99 -104 99 -235q0 -136 -99 -238q-94 -98 -233 -98q-142 0 -236 98q-96 99 -96 238zM270 1143q0 -58 44.5 -105t103.5 -47t103 47t44 105q0 60 -43.5 105.5t-103.5 45.5t-104 -45.5t-44 -105.5z" />
<glyph unicode="&#xb1;" d="M29 0v246h1081v-246h-1081zM29 565v246h409v254h262v-254h410v-246h-410v-256h-262v256h-409z" />
<glyph unicode="&#xb2;" horiz-adv-x="739" d="M45 1151q8 143 90 230t234 87q138 0 223.5 -75t85.5 -201q0 -47 -10 -78q-22 -77 -127 -174l-219 -207h374v-151h-649v116l391 377q26 25 37 60q4 32 4 51q0 56 -31.5 89.5t-89.5 33.5q-75 0 -106.5 -43t-26.5 -115h-180z" />
<glyph unicode="&#xb3;" horiz-adv-x="739" d="M49 836h180q6 -54 38 -86.5t89 -32.5q56 0 91.5 35.5t35.5 87.5q0 71 -43 94.5t-127 23.5h-67v152h43h33q33 0 57 3.5t47.5 13.5t36 31.5t12.5 53.5q0 47 -33.5 75t-85.5 28q-94 0 -110 -94h-180q15 124 88 182q78 63 208 63q123 0 207 -63q86 -62 86 -176 q0 -65 -29.5 -107.5t-93.5 -75.5q76 -30 112 -79.5t36 -126.5q0 -126 -94 -199q-92 -74 -226 -74q-135 0 -221 74t-90 197z" />
<glyph unicode="&#xb4;" horiz-adv-x="530" d="M96 1188l207 315h338l-301 -315h-244z" />
<glyph unicode="&#xb5;" horiz-adv-x="1214" d="M106 -369v1434h304v-608q0 -100 46 -145.5t148 -45.5q105 0 154 44.5t49 146.5v608h303v-619q0 -226 -143 -348q-139 -121 -359 -121q-110 0 -198 35v-381h-304z" />
<glyph unicode="&#xb6;" d="M0 961q0 234 139 364q141 129 373 129h610v-147h-110v-1676h-193v1676h-225v-1676h-193v873q-193 0 -297 137t-104 320z" />
<glyph unicode="&#xb7;" horiz-adv-x="569" />
<glyph unicode="&#xb8;" horiz-adv-x="530" d="M43 -375l47 88q44 -20 76 -20q34 1 53 19t19 44q0 22 -18 34.5t-46 12.5l-4 -1q-4 -1 -8 -1h-4q-7 0 -19 -4l103 203h118l-57 -98q119 -20 119 -107q0 -90 -74 -155q-73 -64 -162 -64q-67 0 -125 37q-9 3 -18 12z" />
<glyph unicode="&#xb9;" horiz-adv-x="739" d="M190 1307v147h316v-862h-197v715h-119z" />
<glyph unicode="&#xba;" horiz-adv-x="796" d="M61 1145q0 141 99 235q99 99 235 99q137 0 236 -99q98 -98 98 -235q0 -138 -98 -236q-94 -98 -236 -98q-137 0 -235 98q-99 99 -99 236zM246 1145q0 -62 44 -106t105 -44t105.5 44.5t44.5 105.5t-44 105t-106 44q-61 0 -105 -44t-44 -105z" />
<glyph unicode="&#xbb;" horiz-adv-x="1136" d="M72 246v246l266 163l-266 164v246l463 -283v-254zM602 246v246l266 163l-266 164v246l463 -283v-254z" />
<glyph unicode="&#xbc;" horiz-adv-x="1554" d="M117 1311v143h293v-868h-181v725h-112zM229 0l836 1454h188l-835 -1454h-189zM860 225v121l340 522h180v-499h115v-144h-115v-225h-180v225h-340zM1042 369h158v252h-4z" />
<glyph unicode="&#xbd;" horiz-adv-x="1554" d="M117 1311v143h293v-868h-181v725h-112zM178 0l838 1454h186l-831 -1454h-193zM872 569q8 144 90 231t234 87q138 0 223.5 -75.5t85.5 -201.5q0 -47 -10 -78q-22 -77 -127 -174l-219 -206h375v-152h-650v117l392 377q26 26 37 59q4 32 4 51q0 56 -31.5 89.5t-89.5 33.5 q-75 0 -106.5 -43t-26.5 -115h-181z" />
<glyph unicode="&#xbe;" horiz-adv-x="1554" d="M49 836h180q6 -54 38 -86.5t89 -32.5q56 0 91.5 35.5t35.5 87.5q0 71 -43 94.5t-127 23.5h-67v152h43h33q33 0 57 3.5t47.5 13.5t36 31.5t12.5 53.5q0 47 -33.5 75t-85.5 28q-94 0 -110 -94h-180q15 124 88 182q78 63 208 63q123 0 207 -63q86 -62 86 -176 q0 -65 -29.5 -107.5t-93.5 -75.5q76 -30 112 -79.5t36 -126.5q0 -126 -94 -199q-92 -74 -226 -74q-135 0 -221 74t-90 197zM305 0l838 1454h186l-831 -1454h-193zM860 213v133l342 522h178v-512h115v-143h-115v-213h-180v213h-340zM1040 356h160v265h6z" />
<glyph unicode="&#xbf;" horiz-adv-x="1060" d="M49 438q1 171 98 284t259 136v186h290v-409h-75q-108 0 -187 -39q-82 -37 -82 -164q0 -86 57 -138t144 -52q159 0 188 172h303q-33 -205 -161.5 -321t-335.5 -116q-206 0 -350 123q-151 129 -148 338zM406 1151v303h290v-303h-290z" />
<glyph unicode="&#xc0;" horiz-adv-x="1251" d="M-74 0l539 1454h330l528 -1454h-348l-103 287h-507l-103 -287h-336zM250 1839h340l205 -315h-240zM463 561h315l-151 475h-4z" />
<glyph unicode="&#xc1;" horiz-adv-x="1251" d="M-74 0l539 1454h330l528 -1454h-348l-103 287h-507l-103 -287h-336zM457 1524l207 315h337l-301 -315h-243zM463 561h315l-151 475h-4z" />
<glyph unicode="&#xc2;" horiz-adv-x="1251" d="M-74 0l539 1454h330l528 -1454h-348l-103 287h-507l-103 -287h-336zM311 1524l166 315h297l164 -315h-229l-82 149l-82 -149h-234zM463 561h315l-151 475h-4z" />
<glyph unicode="&#xc3;" horiz-adv-x="1251" d="M-74 0l539 1454h330l528 -1454h-348l-103 287h-507l-103 -287h-336zM303 1528l21 90q46 197 188 197q45 0 117 -37q7 -4 19 -10.5t18.5 -10.5t15.5 -8t15.5 -6t11.5 -2q30 0 41 16t16 51q2 2 2 7h182q-1 -11 -6 -33t-6 -35q-18 -82 -61 -152q-40 -67 -138 -67 q-44 0 -112 33l-58 26q-20 4 -30 4q-37 0 -52 -51q-4 -4 -4 -12h-180zM463 561h315l-151 475h-4z" />
<glyph unicode="&#xc4;" horiz-adv-x="1251" d="M-74 0l539 1454h330l528 -1454h-348l-103 287h-507l-103 -287h-336zM250 1520v315h328v-315h-328zM463 561h315l-151 475h-4zM676 1520v315h328v-315h-328z" />
<glyph unicode="&#xc5;" horiz-adv-x="1251" d="M-74 0l539 1454h330l528 -1454h-348l-103 287h-507l-103 -287h-336zM406 1749q0 91 65 156t156 65q90 0 155 -65q66 -66 66 -156q0 -86 -66 -158q-64 -67 -155 -67q-92 0 -156 67q-65 71 -65 158zM463 561h315l-151 475h-4zM537 1749q0 -38 26.5 -66t63.5 -28t63.5 28 t26.5 66q0 36 -27 63t-63 27t-63 -27t-27 -63z" />
<glyph unicode="&#xc6;" horiz-adv-x="1781" d="M-119 0l766 1454h1049v-274h-545v-295h516v-267h-516v-344h545v-274h-860v287h-445l-151 -287h-359zM539 561h297v578h-5z" />
<glyph unicode="&#xc7;" horiz-adv-x="1478" d="M57 727q0 306 201 528q202 224 516 224q245 0 422 -142q171 -135 225 -383h-331q-48 106 -124.5 157.5t-191.5 51.5q-186 0 -295 -127q-106 -124 -106 -309t106 -309q109 -127 295 -127q115 0 191.5 51.5t124.5 157.5h331q-53 -245 -225 -383q-178 -140 -422 -140 q-312 0 -516 222q-201 222 -201 528zM543 -375l47 88q44 -20 76 -20q34 1 52.5 19t18.5 44q0 22 -18 34.5t-45 12.5l-4 -1q-4 -1 -8 -1h-5q-6 0 -18 -4l102 203h119l-57 -98q119 -20 119 -107q0 -90 -74 -155q-73 -64 -162 -64q-67 0 -125 37q-9 3 -18 12z" />
<glyph unicode="&#xc8;" horiz-adv-x="1062" d="M115 0v1454h860v-274h-545v-295h516v-267h-516v-344h545v-274h-860zM180 1839h340l205 -315h-240z" />
<glyph unicode="&#xc9;" horiz-adv-x="1062" d="M115 0v1454h860v-274h-545v-295h516v-267h-516v-344h545v-274h-860zM387 1524l207 315h338l-301 -315h-244z" />
<glyph unicode="&#xca;" horiz-adv-x="1062" d="M115 0v1454h860v-274h-545v-295h516v-267h-516v-344h545v-274h-860zM242 1524l166 315h297l163 -315h-229l-82 149l-82 -149h-233z" />
<glyph unicode="&#xcb;" horiz-adv-x="1062" d="M115 0v1454h860v-274h-545v-295h516v-267h-516v-344h545v-274h-860zM180 1520v315h328v-315h-328zM606 1520v315h328v-315h-328z" />
<glyph unicode="&#xcc;" horiz-adv-x="569" d="M-90 1839h340l205 -315h-240zM127 0v1454h315v-1454h-315z" />
<glyph unicode="&#xcd;" horiz-adv-x="569" d="M117 1524l207 315h338l-302 -315h-243zM127 0v1454h315v-1454h-315z" />
<glyph unicode="&#xce;" horiz-adv-x="569" d="M-29 1524l166 315h297l164 -315h-229l-82 149l-82 -149h-234zM127 0v1454h315v-1454h-315z" />
<glyph unicode="&#xcf;" horiz-adv-x="569" d="M-90 1520v315h328v-315h-328zM127 0v1454h315v-1454h-315zM336 1520v315h328v-315h-328z" />
<glyph unicode="&#xd0;" horiz-adv-x="1402" d="M0 623v274h123v557h528q283 0 488 -190q204 -186 204 -537q0 -350 -204 -539q-206 -188 -488 -188h-528v623h-123zM438 274h119q240 0 355.5 104t115.5 349t-115.5 349t-355.5 104h-119v-283h344v-274h-344v-349z" />
<glyph unicode="&#xd1;" horiz-adv-x="1478" d="M115 0v1454h295l643 -887h8v887h303v-1454h-266l-676 911h-4v-911h-303zM418 1528l20 90q46 197 189 197q44 0 116 -37q7 -4 19 -10.5t18.5 -10.5t15.5 -8t15.5 -6t11.5 -2q30 0 41.5 16t16.5 51q2 2 2 7h182q-1 -11 -6 -33t-6 -35q-17 -80 -62 -152q-40 -67 -137 -67 q-45 0 -113 33l-57 26q-20 4 -31 4q-36 0 -51 -51q-4 -4 -4 -12h-180z" />
<glyph unicode="&#xd2;" horiz-adv-x="569" />
<glyph unicode="&#xd3;" horiz-adv-x="1593" d="M57 727q0 300 215 526t525 226q312 0 524 -226q215 -226 215 -526t-215 -526q-211 -224 -524 -224q-311 0 -525 224q-215 226 -215 526zM373 727q0 -184 119 -309q121 -127 305 -127q182 0 303 127t121 309t-121 309t-303 127q-184 0 -305 -127q-119 -125 -119 -309z M616 1524l207 315h338l-301 -315h-244z" />
<glyph unicode="&#xd4;" horiz-adv-x="1593" d="M57 727q0 300 215 526t525 226q312 0 524 -226q215 -226 215 -526t-215 -526q-211 -224 -524 -224q-311 0 -525 224q-215 226 -215 526zM373 727q0 -184 119 -309q121 -127 305 -127q182 0 303 127t121 309t-121 309t-303 127q-184 0 -305 -127q-119 -125 -119 -309z M471 1524l166 315h297l164 -315h-230l-82 149l-81 -149h-234z" />
<glyph unicode="&#xd5;" horiz-adv-x="1593" d="M57 727q0 300 215 526t525 226q312 0 524 -226q215 -226 215 -526t-215 -526q-211 -224 -524 -224q-311 0 -525 224q-215 226 -215 526zM373 727q0 -184 119 -309q121 -127 305 -127q182 0 303 127t121 309t-121 309t-303 127q-184 0 -305 -127q-119 -125 -119 -309z M463 1528l20 90q46 197 189 197q44 0 116 -37q7 -4 19 -10.5t18.5 -10.5t15.5 -8t15.5 -6t11.5 -2q30 0 41.5 16t16.5 51q2 2 2 7h182q-1 -11 -6 -33t-6 -35q-17 -80 -62 -152q-40 -67 -137 -67q-45 0 -113 33l-57 26q-20 4 -31 4q-36 0 -51 -51q-4 -4 -4 -12h-180z" />
<glyph unicode="&#xd6;" horiz-adv-x="1593" d="M57 727q0 300 215 526t525 226q312 0 524 -226q215 -226 215 -526t-215 -526q-211 -224 -524 -224q-311 0 -525 224q-215 226 -215 526zM373 727q0 -184 119 -309q121 -127 305 -127q182 0 303 127t121 309t-121 309t-303 127q-184 0 -305 -127q-119 -125 -119 -309z M410 1520v315h327v-315h-327zM836 1520v315h327v-315h-327z" />
<glyph unicode="&#xd7;" d="M37 209l323 323l-323 324l209 209l323 -324l324 324l209 -209l-324 -324l324 -323l-209 -209l-324 324l-323 -324z" />
<glyph unicode="&#xd8;" horiz-adv-x="1593" d="M57 727q0 300 215 526t525 226q232 0 417 -133l134 161l98 -77l-135 -166q107 -105 166 -244t59 -293q0 -300 -215 -526q-211 -224 -524 -224q-227 0 -426 138l-142 -172l-98 82l143 174q-102 105 -159.5 242t-57.5 286zM373 727q0 -168 100 -285l543 660q-92 61 -219 61 q-184 0 -305 -127q-119 -125 -119 -309zM569 356q95 -65 228 -65q182 0 303 127t121 309q0 176 -109 295z" />
<glyph unicode="&#xd9;" horiz-adv-x="1366" d="M111 602v852h315v-909q0 -144 57 -205t201 -61t201 61t57 205v909h315v-852q0 -297 -124 -461q-126 -164 -449 -164q-322 0 -448 164q-125 165 -125 461zM307 1839h340l205 -315h-240z" />
<glyph unicode="&#xda;" horiz-adv-x="1366" d="M111 602v852h315v-909q0 -144 57 -205t201 -61t201 61t57 205v909h315v-852q0 -297 -124 -461q-126 -164 -449 -164q-322 0 -448 164q-125 165 -125 461zM514 1524l207 315h338l-301 -315h-244z" />
<glyph unicode="&#xdb;" horiz-adv-x="1366" d="M111 602v852h315v-909q0 -144 57 -205t201 -61t201 61t57 205v909h315v-852q0 -297 -124 -461q-126 -164 -449 -164q-322 0 -448 164q-125 165 -125 461zM369 1524l166 315h296l164 -315h-229l-82 149l-82 -149h-233z" />
<glyph unicode="&#xdc;" horiz-adv-x="1366" d="M111 602v852h315v-909q0 -144 57 -205t201 -61t201 61t57 205v909h315v-852q0 -297 -124 -461q-126 -164 -449 -164q-322 0 -448 164q-125 165 -125 461zM307 1520v315h328v-315h-328zM733 1520v315h328v-315h-328z" />
<glyph unicode="&#xdd;" horiz-adv-x="569" />
<glyph unicode="&#xde;" d="M127 0v1454h315v-274h172q193 0 349 -107q155 -107 155 -344q0 -226 -122.5 -338t-381.5 -112h-172v-279h-315zM442 545h115q140 0 193 41.5t53 142.5t-53 142.5t-193 41.5h-115v-368z" />
<glyph unicode="&#xdf;" horiz-adv-x="1214" d="M8 786v291h176q0 196 70 297q70 105 276 105q28 0 78 -4q129 -12 240 -78q110 -64 110 -219q0 -74 -28.5 -126t-89.5 -94q327 -87 327 -426q0 -248 -163 -401q-165 -151 -451 -154v273q33 -8 65 -8q5 0 15.5 1t15.5 1q87 13 151 88.5t64 195.5q0 102 -55 173.5t-131 97.5 q-34 12 -66 12q-20 0 -28 -2q-5 0 -15.5 -1t-15.5 -1v250q67 4 99 26.5t32 51.5q0 34 -27 51.5t-73 17.5q-53 0 -75 -21t-22 -65v-1118h-303v786h-176z" />
<glyph unicode="&#xe0;" horiz-adv-x="1290" d="M49 532q0 224 154 392q153 166 383 166q166 0 291 -107v82h303v-1065h-303v96q-15 -21 -54 -49q-94 -70 -237 -70q-230 0 -383 164q-154 168 -154 391zM270 1503h340l205 -315h-240zM352 532q0 -109 76 -188q78 -78 186 -78q107 0 185 78q78 81 78 188q0 109 -78 187 q-77 80 -185 80q-109 0 -186 -80q-76 -76 -76 -187z" />
<glyph unicode="&#xe1;" horiz-adv-x="1290" d="M49 532q0 224 154 392q153 166 383 166q166 0 291 -107v82h303v-1065h-303v96q-15 -21 -54 -49q-94 -70 -237 -70q-230 0 -383 164q-154 168 -154 391zM352 532q0 -109 76 -188q78 -78 186 -78q107 0 185 78q78 81 78 188q0 109 -78 187q-77 80 -185 80q-109 0 -186 -80 q-76 -76 -76 -187zM477 1188l207 315h338l-301 -315h-244z" />
<glyph unicode="&#xe2;" horiz-adv-x="1290" d="M49 532q0 224 154 392q153 166 383 166q166 0 291 -107v82h303v-1065h-303v96q-15 -21 -54 -49q-94 -70 -237 -70q-230 0 -383 164q-154 168 -154 391zM332 1188l166 315h297l163 -315h-229l-82 149l-82 -149h-233zM352 532q0 -109 76 -188q78 -78 186 -78q107 0 185 78 q78 81 78 188q0 109 -78 187q-77 80 -185 80q-109 0 -186 -80q-76 -76 -76 -187z" />
<glyph unicode="&#xe3;" horiz-adv-x="1290" d="M49 532q0 224 154 392q153 166 383 166q166 0 291 -107v82h303v-1065h-303v96q-15 -21 -54 -49q-94 -70 -237 -70q-230 0 -383 164q-154 168 -154 391zM324 1192l20 90q46 197 188 197q45 0 117 -37q7 -4 19 -10.5t18.5 -10.5t15.5 -8t15.5 -6t11.5 -2q30 0 41 16t16 52 q2 2 2 6h183q-1 -11 -6.5 -33t-6.5 -35q-18 -81 -61 -151q-41 -68 -137 -68q-45 0 -113 33l-57 26q-20 4 -31 4q-36 0 -51 -51q-4 -4 -4 -12h-180zM352 532q0 -109 76 -188q78 -78 186 -78q107 0 185 78q78 81 78 188q0 109 -78 187q-77 80 -185 80q-109 0 -186 -80 q-76 -76 -76 -187z" />
<glyph unicode="&#xe4;" horiz-adv-x="1290" d="M49 532q0 224 154 392q153 166 383 166q166 0 291 -107v82h303v-1065h-303v96q-15 -21 -54 -49q-94 -70 -237 -70q-230 0 -383 164q-154 168 -154 391zM270 1184v315h328v-315h-328zM352 532q0 -109 76 -188q78 -78 186 -78q107 0 185 78q78 81 78 188q0 109 -78 187 q-77 80 -185 80q-109 0 -186 -80q-76 -76 -76 -187zM696 1184v315h328v-315h-328z" />
<glyph unicode="&#xe5;" horiz-adv-x="1290" d="M49 532q0 224 154 392q153 166 383 166q166 0 291 -107v82h303v-1065h-303v96q-15 -21 -54 -49q-94 -70 -237 -70q-230 0 -383 164q-154 168 -154 391zM352 532q0 -109 76 -188q78 -78 186 -78q107 0 185 78q78 81 78 188q0 109 -78 187q-77 80 -185 80q-109 0 -186 -80 q-76 -76 -76 -187zM426 1413q0 90 66 156q65 65 155 65q91 0 156 -65t65 -156q0 -87 -65 -158q-64 -67 -156 -67q-91 0 -155 67q-66 72 -66 158zM557 1413q0 -38 26.5 -66t63.5 -28t63.5 28t26.5 66q0 36 -27 63t-63 27t-63 -27t-27 -63z" />
<glyph unicode="&#xe6;" horiz-adv-x="2048" d="M49 532q0 224 154 392q153 166 383 166q166 0 291 -107v82h303v-49q126 74 274 74q284 0 416 -179q130 -177 121 -440h-762q2 -103 61.5 -172.5t169.5 -69.5q96 0 150 39t67 99h305q-30 -201 -180 -295q-151 -95 -338 -95q-165 0 -284 70v-47h-303v96q-15 -21 -54 -49 q-94 -70 -237 -70q-230 0 -383 164q-154 168 -154 391zM352 532q0 -109 76 -188q78 -78 186 -78q107 0 185 78q78 81 78 188q0 109 -78 187q-77 80 -185 80q-109 0 -186 -80q-76 -76 -76 -187zM1237 684h446q-19 87 -75.5 133.5t-147.5 46.5t-147.5 -46.5t-75.5 -133.5z" />
<glyph unicode="&#xe7;" horiz-adv-x="1175" d="M53 532q0 239 166 398q171 160 399 160q182 0 330 -111q147 -111 174 -299h-303q-52 143 -205 143q-125 0 -192 -88q-66 -87 -66 -203q0 -111 66 -202q67 -88 192 -88q151 0 205 143h303q-34 -196 -174 -303q-138 -105 -330 -105q-231 0 -399 158q-166 156 -166 397z M379 -375l47 88q44 -20 76 -20q34 1 52.5 19t18.5 44q0 22 -18 34.5t-45 12.5l-4 -1q-4 -1 -8 -1h-4q-7 0 -19 -4l103 203h118l-57 -98q119 -20 119 -107q0 -90 -74 -155q-73 -64 -162 -64q-67 0 -125 37q-9 3 -18 12z" />
<glyph unicode="&#xe8;" horiz-adv-x="1175" d="M49 524q0 229 146 398q146 168 387 168q283 0 415 -179q130 -177 121 -440h-762q2 -103 62 -172.5t170 -69.5q96 0 150 39t67 99h305q-30 -201 -180 -295q-151 -95 -338 -95q-253 0 -399 158q-144 156 -144 389zM213 1503h340l205 -315h-240zM365 684h446 q-19 87 -75.5 133.5t-147.5 46.5t-147.5 -46.5t-75.5 -133.5z" />
<glyph unicode="&#xe9;" horiz-adv-x="1175" d="M49 524q0 229 146 398q146 168 387 168q283 0 415 -179q130 -177 121 -440h-762q2 -103 62 -172.5t170 -69.5q96 0 150 39t67 99h305q-30 -201 -180 -295q-151 -95 -338 -95q-253 0 -399 158q-144 156 -144 389zM365 684h446q-19 87 -75.5 133.5t-147.5 46.5 t-147.5 -46.5t-75.5 -133.5zM420 1188l207 315h338l-301 -315h-244z" />
<glyph unicode="&#xea;" horiz-adv-x="1175" d="M49 524q0 229 146 398q146 168 387 168q283 0 415 -179q130 -177 121 -440h-762q2 -103 62 -172.5t170 -69.5q96 0 150 39t67 99h305q-30 -201 -180 -295q-151 -95 -338 -95q-253 0 -399 158q-144 156 -144 389zM274 1188l166 315h297l164 -315h-229l-82 149l-82 -149 h-234zM365 684h446q-19 87 -75.5 133.5t-147.5 46.5t-147.5 -46.5t-75.5 -133.5z" />
<glyph unicode="&#xeb;" horiz-adv-x="1175" d="M49 524q0 229 146 398q146 168 387 168q283 0 415 -179q130 -177 121 -440h-762q2 -103 62 -172.5t170 -69.5q96 0 150 39t67 99h305q-30 -201 -180 -295q-151 -95 -338 -95q-253 0 -399 158q-144 156 -144 389zM213 1184v315h328v-315h-328zM365 684h446 q-19 87 -75.5 133.5t-147.5 46.5t-147.5 -46.5t-75.5 -133.5zM639 1184v315h328v-315h-328z" />
<glyph unicode="&#xec;" horiz-adv-x="530" d="M-111 1503h340l205 -315h-239zM115 0v1065h303v-1065h-303z" />
<glyph unicode="&#xed;" horiz-adv-x="530" d="M96 1188l207 315h338l-301 -315h-244zM115 0v1065h303v-1065h-303z" />
<glyph unicode="&#xee;" horiz-adv-x="530" d="M-49 1188l166 315h297l164 -315h-230l-82 149l-82 -149h-233zM115 0v1065h303v-1065h-303z" />
<glyph unicode="&#xef;" horiz-adv-x="530" d="M-111 1184v315h328v-315h-328zM115 0v1065h303v-1065h-303zM315 1184v315h328v-315h-328z" />
<glyph unicode="&#xf0;" horiz-adv-x="1214" d="M45 498q0 203 125 346q126 147 330 147q108 0 178 -45l4 4l-162 189l-270 -66l-131 184l254 58l-111 139h373l49 -65l270 65l131 -184l-266 -66l193 -262l20 -29q139 -193 139 -393q0 -249 -165 -395q-165 -148 -406 -148q-226 0 -391 142q-164 144 -164 379zM348 483 q0 -107 76 -174t184 -67q109 0 185 67q75 66 75 174t-75 174q-77 68 -185 68q-107 0 -184 -68q-76 -67 -76 -174z" />
<glyph unicode="&#xf1;" horiz-adv-x="1214" d="M111 0v1065h303v-127q41 41 69 63q59 46 117 67.5t139 21.5q170 0 270.5 -103t100.5 -274v-713h-303v651q0 148 -170 148q-95 0 -159 -46.5t-64 -140.5v-612h-303zM285 1192l20 90q46 197 189 197q44 0 116 -37q7 -4 19 -10.5t18.5 -10.5t15.5 -8t15.5 -6t11.5 -2 q30 0 41.5 16.5t16.5 51.5q2 2 2 6h182q-1 -11 -6 -33t-6 -35q-17 -78 -62 -151q-41 -68 -137 -68q-45 0 -113 33l-57 26q-20 4 -31 4q-36 0 -51 -51q-4 -4 -4 -12h-180z" />
<glyph unicode="&#xf2;" horiz-adv-x="1214" d="M49 532q0 230 164 394t393 164t393 -164t164 -394q0 -229 -164 -393q-162 -162 -393 -162t-393 162q-164 164 -164 393zM219 1503h340l205 -315h-240zM352 532q0 -106 74 -180q73 -73 180 -73q105 0 178 73q76 76 76 180q0 103 -76 179q-75 75 -178 75q-105 0 -180 -75 q-74 -74 -74 -179z" />
<glyph unicode="&#xf3;" horiz-adv-x="1214" d="M49 532q0 230 164 394t393 164t393 -164t164 -394q0 -229 -164 -393q-162 -162 -393 -162t-393 162q-164 164 -164 393zM352 532q0 -106 74 -180q73 -73 180 -73q105 0 178 73q76 76 76 180q0 103 -76 179q-75 75 -178 75q-105 0 -180 -75q-74 -74 -74 -179zM426 1188 l207 315h338l-301 -315h-244z" />
<glyph unicode="&#xf4;" horiz-adv-x="1214" d="M49 532q0 230 164 394t393 164t393 -164t164 -394q0 -229 -164 -393q-162 -162 -393 -162t-393 162q-164 164 -164 393zM281 1188l165 315h297l164 -315h-229l-82 149l-82 -149h-233zM352 532q0 -106 74 -180q73 -73 180 -73q105 0 178 73q76 76 76 180q0 103 -76 179 q-75 75 -178 75q-105 0 -180 -75q-74 -74 -74 -179z" />
<glyph unicode="&#xf5;" horiz-adv-x="1214" d="M49 532q0 230 164 394t393 164t393 -164t164 -394q0 -229 -164 -393q-162 -162 -393 -162t-393 162q-164 164 -164 393zM272 1192l21 90q46 197 188 197q45 0 117 -37q7 -4 19 -10.5t18.5 -10.5t15.5 -8t15.5 -6t11.5 -2q30 0 41 16t16 52q2 2 2 6h183q-1 -11 -6.5 -33 t-6.5 -35q-18 -81 -61 -151q-41 -68 -137 -68q-45 0 -113 33l-57 26q-20 4 -31 4q-36 0 -51 -51q-4 -4 -4 -12h-181zM352 532q0 -106 74 -180q73 -73 180 -73q105 0 178 73q76 76 76 180q0 103 -76 179q-75 75 -178 75q-105 0 -180 -75q-74 -74 -74 -179z" />
<glyph unicode="&#xf6;" horiz-adv-x="1214" d="M49 532q0 230 164 394t393 164t393 -164t164 -394q0 -229 -164 -393q-162 -162 -393 -162t-393 162q-164 164 -164 393zM219 1184v315h328v-315h-328zM352 532q0 -106 74 -180q73 -73 180 -73q105 0 178 73q76 76 76 180q0 103 -76 179q-75 75 -178 75q-105 0 -180 -75 q-74 -74 -74 -179zM645 1184v315h328v-315h-328z" />
<glyph unicode="&#xf7;" d="M37 406v253h1065v-253h-1065zM426 -8v303h287v-303h-287zM426 770v303h287v-303h-287z" />
<glyph unicode="&#xf8;" horiz-adv-x="1214" d="M49 532q0 230 164 394t393 164q166 0 305 -93l111 138l86 -70l-111 -135q79 -76 122.5 -179t43.5 -219q0 -229 -164 -393q-162 -162 -393 -162q-171 0 -313 95l-115 -142l-82 70l115 141q-77 80 -119.5 180.5t-42.5 210.5zM352 532q0 -80 54 -153l313 381q-51 26 -113 26 q-105 0 -180 -75q-74 -74 -74 -179zM487 309q65 -30 119 -30q105 0 178 73q76 76 76 180q0 97 -57 160z" />
<glyph unicode="&#xf9;" horiz-adv-x="1214" d="M106 446v619h304v-608q0 -100 46 -145.5t148 -45.5q105 0 154 44.5t49 146.5v608h303v-619q0 -226 -143 -348q-139 -121 -359 -121t-360 119q-142 121 -142 350zM231 1503h340l205 -315h-239z" />
<glyph unicode="&#xfa;" horiz-adv-x="1214" d="M106 446v619h304v-608q0 -100 46 -145.5t148 -45.5q105 0 154 44.5t49 146.5v608h303v-619q0 -226 -143 -348q-139 -121 -359 -121t-360 119q-142 121 -142 350zM438 1188l207 315h338l-301 -315h-244z" />
<glyph unicode="&#xfb;" horiz-adv-x="1214" d="M106 446v619h304v-608q0 -100 46 -145.5t148 -45.5q105 0 154 44.5t49 146.5v608h303v-619q0 -226 -143 -348q-139 -121 -359 -121t-360 119q-142 121 -142 350zM293 1188l166 315h297l164 -315h-230l-82 149l-82 -149h-233z" />
<glyph unicode="&#xfc;" horiz-adv-x="1214" d="M106 446v619h304v-608q0 -100 46 -145.5t148 -45.5q105 0 154 44.5t49 146.5v608h303v-619q0 -226 -143 -348q-139 -121 -359 -121t-360 119q-142 121 -142 350zM231 1184v315h328v-315h-328zM657 1184v315h328v-315h-328z" />
<glyph unicode="&#xfd;" horiz-adv-x="569" />
<glyph unicode="&#xfe;" horiz-adv-x="1290" d="M111 -369v1823h303v-485q16 22 53 49q97 72 238 72q229 0 382 -166q154 -168 154 -392q0 -223 -154 -391q-153 -164 -382 -164q-157 0 -291 84v-430h-303zM414 532q0 -110 75 -188q78 -78 187 -78q106 0 184 78q78 81 78 188q0 109 -78 187q-77 80 -184 80 q-110 0 -187 -80q-75 -75 -75 -187z" />
<glyph unicode="&#xff;" horiz-adv-x="1099" d="M-41 1065h340l250 -612l274 612h328l-684 -1434h-315l229 469zM174 1184v315h328v-315h-328zM600 1184v315h328v-315h-328z" />
<glyph unicode="&#x152;" horiz-adv-x="2160" d="M57 727q0 300 215 526t525 226q241 0 424 -138v113h860v-274h-545v-295h516v-267h-516v-344h545v-274h-860v115q-183 -138 -424 -138q-311 0 -525 224q-215 226 -215 526zM373 727q0 -184 119 -309q121 -127 305 -127q182 0 303 127t121 309t-121 309t-303 127 q-184 0 -305 -127q-119 -125 -119 -309z" />
<glyph unicode="&#x153;" horiz-adv-x="2009" d="M49 532q0 230 164 394t393 164q243 0 408 -179q71 84 172.5 131.5t222.5 47.5q284 0 416 -179q130 -177 121 -440h-762q2 -103 61.5 -172.5t169.5 -69.5q96 0 150 39t67 99h305q-30 -201 -180 -295q-151 -95 -338 -95q-130 0 -235 45.5t-174 127.5q-77 -81 -181 -127 t-223 -46q-231 0 -393 162q-164 164 -164 393zM352 532q0 -106 74 -180q73 -73 180 -73q105 0 178 73q76 76 76 180q0 103 -76 179q-75 75 -178 75q-105 0 -180 -75q-74 -74 -74 -179zM1192 684h446q-19 87 -75.5 133.5t-147.5 46.5t-147.5 -46.5t-75.5 -133.5z" />
<glyph unicode="&#x178;" horiz-adv-x="1024" d="M-106 1454h356l260 -498l270 498h350l-471 -797v-657h-315v657zM150 1520v315h327v-315h-327zM575 1520v315h328v-315h-328z" />
<glyph unicode="&#x2c6;" horiz-adv-x="530" d="M-57 1192q1 3 22 90q50 197 187 197q44 0 116 -37q7 -4 19 -10.5t18.5 -10.5t15.5 -8t15.5 -6t11.5 -2q30 0 41.5 16.5t16.5 51.5q2 2 2 6h182q-1 -11 -6 -33t-6 -35q-17 -78 -62 -151q-41 -68 -137 -68q-45 0 -113 33l-57 26q-20 4 -31 4q-36 0 -51 -51q-4 -4 -4 -12 h-180z" />
<glyph unicode="&#x2dc;" horiz-adv-x="530" d="M-49 1188l166 315h297l164 -315h-230l-82 149l-82 -149h-233z" />
<glyph unicode="&#x2000;" horiz-adv-x="985" />
<glyph unicode="&#x2001;" horiz-adv-x="1970" />
<glyph unicode="&#x2002;" horiz-adv-x="985" />
<glyph unicode="&#x2003;" horiz-adv-x="1970" />
<glyph unicode="&#x2004;" horiz-adv-x="656" />
<glyph unicode="&#x2005;" horiz-adv-x="492" />
<glyph unicode="&#x2006;" horiz-adv-x="328" />
<glyph unicode="&#x2007;" horiz-adv-x="328" />
<glyph unicode="&#x2008;" horiz-adv-x="246" />
<glyph unicode="&#x2009;" horiz-adv-x="394" />
<glyph unicode="&#x200a;" horiz-adv-x="109" />
<glyph unicode="&#x2010;" horiz-adv-x="681" d="M74 512v287h532v-287h-532z" />
<glyph unicode="&#x2011;" horiz-adv-x="681" d="M74 512v287h532v-287h-532z" />
<glyph unicode="&#x2012;" horiz-adv-x="681" d="M74 512v287h532v-287h-532z" />
<glyph unicode="&#x2013;" d="M0 512v287h1139v-287h-1139z" />
<glyph unicode="&#x2014;" horiz-adv-x="2048" d="M0 512v287h2048v-287h-2048z" />
<glyph unicode="&#x2018;" horiz-adv-x="417" d="M66 1151v303h286v-303h-131l131 -250h-119z" />
<glyph unicode="&#x2019;" horiz-adv-x="417" d="M66 1151v303h286v-303l-168 -246h-114l127 246h-131z" />
<glyph unicode="&#x201a;" horiz-adv-x="454" d="M139 0v303h287v-303l-168 -246h-115l127 246h-131z" />
<glyph unicode="&#x201c;" horiz-adv-x="833" d="M70 1151v303h286v-303h-131l131 -250h-116zM475 1151v303h287v-303h-131l131 -250h-115z" />
<glyph unicode="&#x201d;" horiz-adv-x="833" d="M70 905l131 246h-131v303h286v-303l-168 -246h-118zM475 905l127 246h-127v303h287v-303l-172 -246h-115z" />
<glyph unicode="&#x201e;" horiz-adv-x="833" d="M70 0v303h286v-303l-172 -246h-114l131 246h-131zM479 0v303h287v-303l-172 -246h-115l127 246h-127z" />
<glyph unicode="&#x2022;" horiz-adv-x="1024" d="M139 727q0 152 111 260q111 111 262 111t262 -111q111 -108 111 -260q0 -151 -111 -262q-112 -109 -262 -109t-262 109q-111 111 -111 262z" />
<glyph unicode="&#x2026;" horiz-adv-x="1214" d="M57 0v303h287v-303h-287zM463 0v303h287v-303h-287zM868 0v303h287v-303h-287z" />
<glyph unicode="&#x202f;" horiz-adv-x="394" />
<glyph unicode="&#x2039;" horiz-adv-x="606" d="M72 528v254l463 283v-246l-267 -164l267 -163v-246z" />
<glyph unicode="&#x203a;" horiz-adv-x="606" d="M72 246v246l266 163l-266 164v246l463 -283v-254z" />
<glyph unicode="&#x205f;" horiz-adv-x="492" />
<glyph unicode="&#x2122;" horiz-adv-x="1820" d="M102 1294v160h639v-160h-221v-573h-196v573h-222zM823 721v733h287l141 -440v-2h4l142 442h286v-733h-180v555l-4 2l-172 -557h-147l-172 557l-4 -2v-555h-181z" />
<glyph unicode="&#x25fc;" horiz-adv-x="1064" d="M0 0v1065h1065v-1065h-1065z" />
</font>
</defs>
</svg>
